<?xml version="1.0" encoding="UTF-8" standalone="no"?>
<!-- Created with Inkscape (http://www.inkscape.org/) -->

<svg
   version="1.1"
   id="svg2"
   width="682.66669"
   height="682.66669"
   viewBox="0 0 682.66669 682.66669"
   xmlns="http://www.w3.org/2000/svg"
   xmlns:svg="http://www.w3.org/2000/svg">
  <defs
     id="defs6" />
  <g
     id="g8">
    <path
       id="path849"
       style="fill:#f0c674;fill-opacity:1;stroke-width:5.97844;stroke-linecap:round;stroke-linejoin:bevel"
       d="M 554.44982,672.25585 C 519.13051,697.85363 384.80675,566.51855 341.18682,566.46741 297.56689,566.41629 161.74454,702.48749 126.48534,676.80697 91.226128,651.12646 171.80239,474.81757 158.37172,433.31676 144.94105,391.81595 -13.468002,301.2988 0.0599282,259.82959 13.587858,218.36037 193.19323,243.90123 228.51255,218.30345 263.83186,192.70567 298.16719,2.5824787 341.78711,2.6336127 c 43.61992,0.05113 77.63075,190.2544473 112.88995,215.9349673 35.25921,25.68051 214.50948,1.82757 227.94014,43.32837 13.43067,41.50082 -144.77568,130.37958 -158.3036,171.8488 -13.52793,41.46921 65.45554,212.91232 30.13622,238.5101 z" />
  </g>
</svg>
