<?xml version="1.0" encoding="UTF-8" standalone="no"?>
<!-- Created with Inkscape (http://www.inkscape.org/) -->

<svg
   width="256"
   height="160"
   viewBox="0 0 67.73333 42.333334"
   version="1.1"
   id="svg5"
   sodipodi:docname="Logo-Sulfur-transparent.svg"
   inkscape:version="1.1.1 (3bf5ae0d25, 2021-09-20)"
   inkscape:export-filename="/Art Design/Logos/Logo-Sulfur-transparent.png"
   inkscape:export-xdpi="96"
   inkscape:export-ydpi="96"
   xmlns:inkscape="http://www.inkscape.org/namespaces/inkscape"
   xmlns:sodipodi="http://sodipodi.sourceforge.net/DTD/sodipodi-0.dtd"
   xmlns:xlink="http://www.w3.org/1999/xlink"
   xmlns="http://www.w3.org/2000/svg"
   xmlns:svg="http://www.w3.org/2000/svg">
  <sodipodi:namedview
     id="namedview7"
     pagecolor="#ffffff"
     bordercolor="#666666"
     borderopacity="1.0"
     inkscape:pageshadow="2"
     inkscape:pageopacity="0.0"
     inkscape:pagecheckerboard="0"
     inkscape:document-units="mm"
     showgrid="false"
     showguides="true"
     inkscape:guide-bbox="true"
     inkscape:zoom="1.4142136"
     inkscape:cx="146.3711"
     inkscape:cy="-15.909903"
     inkscape:window-width="1920"
     inkscape:window-height="1015"
     inkscape:window-x="0"
     inkscape:window-y="30"
     inkscape:window-maximized="1"
     inkscape:current-layer="layer1"
     fit-margin-top="0"
     fit-margin-left="0"
     fit-margin-right="0"
     fit-margin-bottom="0"
     lock-margins="true"
     borderlayer="true"
     units="px"
     width="512px">
    <sodipodi:guide
       position="527.14816,237.3729"
       orientation="0,-1"
       id="guide18352" />
    <sodipodi:guide
       position="528.52692,231.72652"
       orientation="0,-1"
       id="guide18354" />
    <sodipodi:guide
       position="529.34762,233.7126"
       orientation="1,0"
       id="guide18356" />
    <sodipodi:guide
       position="532.77812,233.25301"
       orientation="1,0"
       id="guide18358" />
    <sodipodi:guide
       position="531.68573,236.50716"
       orientation="0,-1"
       id="guide18590" />
    <sodipodi:guide
       position="529.34762,232.69502"
       orientation="0,-1"
       id="guide18630" />
  </sodipodi:namedview>
  <defs
     id="defs2">
    <linearGradient
       inkscape:collect="always"
       id="linearGradient146989">
      <stop
         style="stop-color:#b03c20;stop-opacity:1"
         offset="0"
         id="stop146981" />
      <stop
         style="stop-color:#d84b20;stop-opacity:1"
         offset="0.4208537"
         id="stop146983" />
      <stop
         style="stop-color:#ec6920;stop-opacity:1"
         offset="0.77662307"
         id="stop146985" />
      <stop
         style="stop-color:#ec6920;stop-opacity:1"
         offset="1"
         id="stop146987" />
    </linearGradient>
    <linearGradient
       inkscape:collect="always"
       id="linearGradient10822">
      <stop
         style="stop-color:#214ed4;stop-opacity:1;"
         offset="0"
         id="stop10818" />
      <stop
         style="stop-color:#2170d4;stop-opacity:1"
         offset="0.4208537"
         id="stop11334" />
      <stop
         style="stop-color:#21a4d4;stop-opacity:1"
         offset="0.77662307"
         id="stop11400" />
      <stop
         style="stop-color:#21a4d4;stop-opacity:1"
         offset="1"
         id="stop10820" />
    </linearGradient>
    <clipPath
       clipPathUnits="userSpaceOnUse"
       id="clipPath68830">
      <rect
         style="opacity:0.518854;fill:#214ed4;fill-opacity:1;fill-rule:nonzero;stroke:none;stroke-width:1.38076;stroke-linecap:round;stroke-linejoin:bevel"
         id="rect68832"
         width="82.630455"
         height="57.558544"
         x="4.9571257"
         y="105.88682"
         ry="5.5631361" />
    </clipPath>
    <linearGradient
       inkscape:collect="always"
       xlink:href="#linearGradient10822"
       id="linearGradient88529"
       gradientUnits="userSpaceOnUse"
       gradientTransform="matrix(0.49677603,0,0,0.49677603,421.94965,134.00007)"
       x1="53.669926"
       y1="135.68509"
       x2="97.059097"
       y2="135.90045"
       spreadMethod="repeat" />
    <linearGradient
       inkscape:collect="always"
       xlink:href="#linearGradient146989"
       id="linearGradient13773"
       gradientUnits="userSpaceOnUse"
       gradientTransform="matrix(0.69859927,0,0,0.69859927,52.160563,58.268325)"
       x1="15.76632"
       y1="132.42241"
       x2="97.122894"
       y2="132.98773"
       spreadMethod="repeat" />
  </defs>
  <g
     inkscape:label="Layer 1"
     inkscape:groupmode="layer"
     id="layer1"
     transform="translate(-54.1171,-146.20291)">
    <g
       id="g50067"
       transform="matrix(0.26458333,0,0,0.26458333,-145.63245,49.036708)" />
    <g
       id="g50069"
       transform="matrix(0.26458333,0,0,0.26458333,-145.63245,49.036708)" />
    <g
       id="g50071"
       transform="matrix(0.26458333,0,0,0.26458333,-145.63245,49.036708)" />
    <g
       id="g50073"
       transform="matrix(0.26458333,0,0,0.26458333,-145.63245,49.036708)" />
    <g
       id="g50075"
       transform="matrix(0.26458333,0,0,0.26458333,-145.63245,49.036708)" />
    <g
       id="g50077"
       transform="matrix(0.26458333,0,0,0.26458333,-145.63245,49.036708)" />
    <g
       id="g50079"
       transform="matrix(0.26458333,0,0,0.26458333,-145.63245,49.036708)" />
    <g
       id="g50081"
       transform="matrix(0.26458333,0,0,0.26458333,-145.63245,49.036708)" />
    <g
       id="g50083"
       transform="matrix(0.26458333,0,0,0.26458333,-145.63245,49.036708)" />
    <g
       id="g50085"
       transform="matrix(0.26458333,0,0,0.26458333,-145.63245,49.036708)" />
    <g
       id="g50087"
       transform="matrix(0.26458333,0,0,0.26458333,-145.63245,49.036708)" />
    <g
       id="g50089"
       transform="matrix(0.26458333,0,0,0.26458333,-145.63245,49.036708)" />
    <g
       id="g50091"
       transform="matrix(0.26458333,0,0,0.26458333,-145.63245,49.036708)" />
    <g
       id="g50093"
       transform="matrix(0.26458333,0,0,0.26458333,-145.63245,49.036708)" />
    <g
       id="g50095"
       transform="matrix(0.26458333,0,0,0.26458333,-145.63245,49.036708)" />
    <path
       d="m 103.72127,162.199 c 0.41626,-0.0644 0.8053,-0.0864 1.20721,-0.0948 0.57386,7.1e-4 1.19057,0.0219 1.73424,0.10219 l 1.82009,9.73224 2.60805,-6.54583 c 0.40031,-0.0694 0.80098,-0.0924 1.17708,-0.093 0.39144,0.0324 0.79363,0.0443 1.154,0.093 l 2.58497,6.38309 1.38752,-5.97375 c 0.35988,-0.0665 0.72846,-0.0925 1.06168,-0.093 0.41253,0.004 0.81892,0.0387 1.20017,0.093 l -2.61077,8.32194 c -0.40552,0.0625 -0.78879,0.0847 -1.17709,0.0929 -0.39848,-0.004 -0.78621,-0.0366 -1.154,-0.0929 l -2.5388,-5.82512 -2.65421,5.82512 c -0.41323,0.0603 -0.80585,0.0846 -1.20017,0.0929 -0.39509,7.1e-4 -0.75959,-0.0358 -1.13092,-0.0929 z"
       id="path13753"
       sodipodi:nodetypes="ccccccccccccccccccc"
       style="font-size:57.7482px;font-family:Aller;-inkscape-font-specification:Aller;letter-spacing:0px;word-spacing:0px;fill:#b03c20;fill-opacity:1;stroke-width:1.44778px" />
    <path
       style="font-size:57.7482px;font-family:Aller;-inkscape-font-specification:Aller;letter-spacing:0px;word-spacing:0px;fill:#ec6920;fill-opacity:1;stroke-width:2.89557px"
       d="m 58.776978,150.07176 c -0.844202,0.009 -1.663772,0.0743 -2.446488,0.18585 l 6.97024,23.85402 c 0.772546,0.12971 1.50994,0.18454 2.261868,0.18584 0.825048,-0.009 1.637882,-0.0772 2.400446,-0.18584 l 5.308258,-11.6503 5.077597,11.6503 c 0.790614,0.11573 1.551633,0.18454 2.307919,0.18584 0.810389,-0.0104 1.600021,-0.0702 2.354395,-0.18584 l 2.994846,-10.11591 -2.076831,-7.00994 -2.994847,12.42932 -5.170114,-12.76603 c -0.922013,-0.13258 -1.649441,-0.15329 -2.307927,-0.1863 -0.813308,0.006 -1.598787,0.0493 -2.353969,0.18585 l -5.216159,13.09174 -4.61627,-19.48278 c -0.853375,-0.13745 -1.680768,-0.18474 -2.492539,-0.18586 z"
       id="path13757" />
    <path
       id="path13759"
       style="font-size:57.7482px;font-family:Aller;-inkscape-font-specification:Aller;letter-spacing:0px;word-spacing:0px;fill:#d84b20;fill-opacity:1;stroke-width:2.07887px"
       d="m 85.755964,156.8523 c -0.627028,0.0125 -1.224814,0.0483 -1.826736,0.13348 l 5.074227,17.12586 c 0.554646,0.0932 1.084182,0.13253 1.623951,0.13347 0.592292,-0.006 1.175945,-0.0554 1.723237,-0.13347 l 3.811463,-8.36437 3.645449,8.36437 c 0.567615,0.0832 1.113835,0.13253 1.656905,0.13347 0.5818,-0.007 1.14867,-0.0505 1.69028,-0.13347 l 2.03374,-6.86885 -1.46721,-5.04379 -2.05783,8.54095 -3.711769,-8.73318 c -0.56644,-0.0724 -1.148152,-0.1012 -1.657327,-0.13342 -0.583865,0.005 -1.147799,0.0355 -1.689862,0.13348 l -3.745136,8.96679 -2.800517,-13.98187 c -0.767122,-0.12367 -2.302865,-0.13944 -2.302865,-0.13944 z"
       sodipodi:nodetypes="ccccccccccccccccccc" />
    <g
       id="g13767"
       transform="matrix(0.81981138,0,0,0.81981138,50.050602,54.553895)"
       clip-path="url(#clipPath68830)">
      <path
         style="fill:#ec6920;fill-opacity:1;stroke-width:0.18813"
         d="m 71.062081,149.88484 v 0 c -5.222837,2.44554 -11.302477,2.44554 -16.525314,0 v 0 c -5.223021,-2.44589 -11.302662,-2.44589 -16.525498,0 v 0 c -5.223011,2.44554 -11.302662,2.44554 -16.525489,0 v 0 c -5.223026,-2.44589 -11.302673,-2.44589 -16.5254969,0 v 10.39904 c 5.2228239,-2.44591 11.3024709,-2.44591 16.5254969,0 v 0 c 5.222827,2.44553 11.302478,2.44553 16.525489,0 v 0 c 5.222836,-2.44591 11.302477,-2.44591 16.525498,0 v 0 c 5.222837,2.44553 11.302477,2.44553 16.525314,0 v 0 c 5.223021,-2.44591 11.302661,-2.44591 16.525498,0 v -10.39904 c -5.223021,-2.44589 -11.302672,-2.44589 -16.525498,0 z"
         id="path13761" />
      <path
         style="fill:#d84b20;fill-opacity:1;stroke-width:0.18813"
         d="m 71.062081,155.08435 v 0 c -5.222837,2.44554 -11.302477,2.44554 -16.525314,0 v 0 c -5.223021,-2.44589 -11.302662,-2.44589 -16.525498,0 v 0 c -5.223011,2.44554 -11.302662,2.44554 -16.525489,0 v 0 c -5.223026,-2.44589 -11.302673,-2.44589 -16.5254969,0 v 10.39904 c 5.2228239,-2.44591 11.3024709,-2.44591 16.5254969,0 v 0 c 5.222827,2.44553 11.302478,2.44553 16.525489,0 v 0 c 5.222836,-2.44591 11.302477,-2.44591 16.525498,0 v 0 c 5.222837,2.44553 11.302477,2.44553 16.525314,0 v 0 c 5.223021,-2.44591 11.302661,-2.44591 16.525498,0 v -10.39904 c -5.223021,-2.44589 -11.302672,-2.44589 -16.525498,0 z"
         id="path13763" />
      <path
         style="fill:#b03c20;fill-opacity:1;stroke-width:0.18813"
         d="m 71.062081,160.28388 v 0 c -5.222837,2.44554 -11.302477,2.44554 -16.525314,0 v 0 c -5.223021,-2.44589 -11.302662,-2.44589 -16.525498,0 v 0 c -5.223011,2.44554 -11.302662,2.44554 -16.525489,0 v 0 c -5.223026,-2.44589 -11.302673,-2.44589 -16.5254969,0 v 10.39904 c 5.2228239,-2.44591 11.3024709,-2.44591 16.5254969,0 v 0 c 5.222827,2.44553 11.302478,2.44553 16.525489,0 v 0 c 5.222836,-2.44591 11.302477,-2.44591 16.525498,0 v 0 c 5.222837,2.44553 11.302477,2.44553 16.525314,0 v 0 c 5.223021,-2.44591 11.302661,-2.44591 16.525498,0 v -10.39904 c -5.223021,-2.44589 -11.302672,-2.44589 -16.525498,0 z"
         id="path13765" />
    </g>
    <text
       xml:space="preserve"
       style="font-size:7.95112px;line-height:64.8%;font-family:Aller;-inkscape-font-specification:Aller;text-align:end;letter-spacing:0px;word-spacing:0px;writing-mode:lr-tb;text-anchor:end;fill:url(#linearGradient13773);fill-opacity:1;fill-rule:nonzero;stroke:none;stroke-width:0.496945px;stroke-linecap:butt;stroke-linejoin:miter;stroke-opacity:1"
       x="120.04363"
       y="153.87456"
       id="text13771"><tspan
         sodipodi:role="line"
         style="font-style:normal;font-variant:normal;font-weight:bold;font-stretch:normal;font-family:Aller;-inkscape-font-specification:'Aller Bold';text-align:end;text-anchor:end;fill:url(#linearGradient13773);fill-opacity:1;fill-rule:nonzero;stroke:none;stroke-width:0.496945px"
         x="120.04363"
         y="153.87456"
         id="tspan13769">Sulfur Browser</tspan></text>
  </g>
</svg>
