<?xml version="1.0" encoding="UTF-8" standalone="no"?>
<!-- Created with Inkscape (http://www.inkscape.org/) -->

<svg
   width="256"
   height="256"
   viewBox="0 0 67.73333 67.733334"
   version="1.1"
   id="svg5"
   sodipodi:docname="Logo-Sulfer-hicolor.svg"
   inkscape:version="1.1.2 (0a00cf5339, 2022-02-04)"
   inkscape:export-filename="/Logos/Logo-Sulfur256x256.png"
   inkscape:export-xdpi="96"
   inkscape:export-ydpi="96"
   xmlns:inkscape="http://www.inkscape.org/namespaces/inkscape"
   xmlns:sodipodi="http://sodipodi.sourceforge.net/DTD/sodipodi-0.dtd"
   xmlns:xlink="http://www.w3.org/1999/xlink"
   xmlns="http://www.w3.org/2000/svg"
   xmlns:svg="http://www.w3.org/2000/svg">
  <sodipodi:namedview
     id="namedview7"
     pagecolor="#ffffff"
     bordercolor="#666666"
     borderopacity="1.0"
     inkscape:pageshadow="2"
     inkscape:pageopacity="0.0"
     inkscape:pagecheckerboard="0"
     inkscape:document-units="mm"
     showgrid="false"
     showguides="true"
     inkscape:guide-bbox="true"
     inkscape:zoom="0.64"
     inkscape:cx="-170.3125"
     inkscape:cy="327.34375"
     inkscape:window-width="1920"
     inkscape:window-height="1015"
     inkscape:window-x="0"
     inkscape:window-y="30"
     inkscape:window-maximized="1"
     inkscape:current-layer="layer1"
     fit-margin-top="0"
     fit-margin-left="0"
     fit-margin-right="0"
     fit-margin-bottom="0"
     lock-margins="true"
     borderlayer="true"
     units="px"
     width="512px" />
  <defs
     id="defs2">
    <linearGradient
       inkscape:collect="always"
       id="linearGradient10822">
      <stop
         style="stop-color:#214ed4;stop-opacity:1;"
         offset="0"
         id="stop10818" />
      <stop
         style="stop-color:#2170d4;stop-opacity:1"
         offset="0.4208537"
         id="stop11334" />
      <stop
         style="stop-color:#21a4d4;stop-opacity:1"
         offset="0.77662307"
         id="stop11400" />
      <stop
         style="stop-color:#21a4d4;stop-opacity:1"
         offset="1"
         id="stop10820" />
    </linearGradient>
    <clipPath
       clipPathUnits="userSpaceOnUse"
       id="clipPath68830">
      <rect
         style="opacity:0.518854;fill:#214ed4;fill-opacity:1;fill-rule:nonzero;stroke:none;stroke-width:1.38076;stroke-linecap:round;stroke-linejoin:bevel"
         id="rect68832"
         width="82.630455"
         height="57.558544"
         x="4.9571257"
         y="105.88682"
         ry="5.5631361" />
    </clipPath>
    <linearGradient
       inkscape:collect="always"
       xlink:href="#linearGradient10822"
       id="linearGradient88529"
       gradientUnits="userSpaceOnUse"
       gradientTransform="matrix(0.49677603,0,0,0.49677603,421.94965,134.00007)"
       x1="53.669926"
       y1="135.68509"
       x2="97.059097"
       y2="135.90045"
       spreadMethod="repeat" />
    <clipPath
       clipPathUnits="userSpaceOnUse"
       id="clipPath1109">
      <rect
         style="fill:#dceec8;fill-opacity:0.506752;stroke-width:3.35432;stroke-linecap:round;stroke-linejoin:bevel"
         id="rect1111"
         width="111.36399"
         height="118.88298"
         x="-150.08377"
         y="230.65746"
         ry="12.695912" />
    </clipPath>
  </defs>
  <g
     inkscape:label="Layer 1"
     inkscape:groupmode="layer"
     id="layer1"
     transform="translate(-54.1171,-146.20291)">
    <g
       id="g1107"
       transform="matrix(0.60821573,0,0,0.56974791,145.40041,14.786309)"
       clip-path="url(#clipPath1109)">
      <g
         id="g969"
         transform="matrix(4.452851,0,0,4.452851,-184.04855,-446.53119)"
         clip-path="none">
        <path
           style="fill:#ec6920;fill-opacity:1;stroke-width:0.18813"
           d="m 71.062081,149.88484 v 0 c -5.222837,2.44554 -11.302477,2.44554 -16.525314,0 v 0 c -5.223021,-2.44589 -11.302662,-2.44589 -16.525498,0 v 0 c -5.223011,2.44554 -11.302662,2.44554 -16.525489,0 v 0 c -5.223026,-2.44589 -11.302673,-2.44589 -16.5254969,0 v 10.39904 c 5.2228239,-2.44591 11.3024709,-2.44591 16.5254969,0 v 0 c 5.222827,2.44553 11.302478,2.44553 16.525489,0 v 0 c 5.222836,-2.44591 11.302477,-2.44591 16.525498,0 v 0 c 5.222837,2.44553 11.302477,2.44553 16.525314,0 v 0 c 5.223021,-2.44591 11.302661,-2.44591 16.525498,0 v -10.39904 c -5.223021,-2.44589 -11.302672,-2.44589 -16.525498,0 z"
           id="path963" />
        <path
           style="fill:#d84b20;fill-opacity:1;stroke-width:0.18813"
           d="m 71.062081,155.08435 v 0 c -5.222837,2.44554 -11.302477,2.44554 -16.525314,0 v 0 c -5.223021,-2.44589 -11.302662,-2.44589 -16.525498,0 v 0 c -5.223011,2.44554 -11.302662,2.44554 -16.525489,0 v 0 c -5.223026,-2.44589 -11.302673,-2.44589 -16.5254969,0 v 10.39904 c 5.2228239,-2.44591 11.3024709,-2.44591 16.5254969,0 v 0 c 5.222827,2.44553 11.302478,2.44553 16.525489,0 v 0 c 5.222836,-2.44591 11.302477,-2.44591 16.525498,0 v 0 c 5.222837,2.44553 11.302477,2.44553 16.525314,0 v 0 c 5.223021,-2.44591 11.302661,-2.44591 16.525498,0 v -10.39904 c -5.223021,-2.44589 -11.302672,-2.44589 -16.525498,0 z"
           id="path965" />
        <path
           style="fill:#b03c20;fill-opacity:1;stroke-width:0.18813"
           d="m 71.062081,160.28388 v 0 c -5.222837,2.44554 -11.302477,2.44554 -16.525314,0 v 0 c -5.223021,-2.44589 -11.302662,-2.44589 -16.525498,0 v 0 c -5.223011,2.44554 -11.302662,2.44554 -16.525489,0 v 0 c -5.223026,-2.44589 -11.302673,-2.44589 -16.5254969,0 v 10.39904 c 5.2228239,-2.44591 11.3024709,-2.44591 16.5254969,0 v 0 c 5.222827,2.44553 11.302478,2.44553 16.525489,0 v 0 c 5.222836,-2.44591 11.302477,-2.44591 16.525498,0 v 0 c 5.222837,2.44553 11.302477,2.44553 16.525314,0 v 0 c 5.223021,-2.44591 11.302661,-2.44591 16.525498,0 v -10.39904 c -5.223021,-2.44589 -11.302672,-2.44589 -16.525498,0 z"
           id="path967" />
      </g>
      <g
         id="g1097"
         transform="matrix(4.452851,0,0,4.452851,-184.04855,-377.07308)"
         clip-path="none">
        <path
           style="fill:#ec6920;fill-opacity:1;stroke-width:0.18813"
           d="m 71.062081,149.88484 v 0 c -5.222837,2.44554 -11.302477,2.44554 -16.525314,0 v 0 c -5.223021,-2.44589 -11.302662,-2.44589 -16.525498,0 v 0 c -5.223011,2.44554 -11.302662,2.44554 -16.525489,0 v 0 c -5.223026,-2.44589 -11.302673,-2.44589 -16.5254969,0 v 10.39904 c 5.2228239,-2.44591 11.3024709,-2.44591 16.5254969,0 v 0 c 5.222827,2.44553 11.302478,2.44553 16.525489,0 v 0 c 5.222836,-2.44591 11.302477,-2.44591 16.525498,0 v 0 c 5.222837,2.44553 11.302477,2.44553 16.525314,0 v 0 c 5.223021,-2.44591 11.302661,-2.44591 16.525498,0 v -10.39904 c -5.223021,-2.44589 -11.302672,-2.44589 -16.525498,0 z"
           id="path1091" />
        <path
           style="fill:#d84b20;fill-opacity:1;stroke-width:0.18813"
           d="m 71.062081,155.08435 v 0 c -5.222837,2.44554 -11.302477,2.44554 -16.525314,0 v 0 c -5.223021,-2.44589 -11.302662,-2.44589 -16.525498,0 v 0 c -5.223011,2.44554 -11.302662,2.44554 -16.525489,0 v 0 c -5.223026,-2.44589 -11.302673,-2.44589 -16.5254969,0 v 10.39904 c 5.2228239,-2.44591 11.3024709,-2.44591 16.5254969,0 v 0 c 5.222827,2.44553 11.302478,2.44553 16.525489,0 v 0 c 5.222836,-2.44591 11.302477,-2.44591 16.525498,0 v 0 c 5.222837,2.44553 11.302477,2.44553 16.525314,0 v 0 c 5.223021,-2.44591 11.302661,-2.44591 16.525498,0 v -10.39904 c -5.223021,-2.44589 -11.302672,-2.44589 -16.525498,0 z"
           id="path1093" />
        <path
           style="fill:#b03c20;fill-opacity:1;stroke-width:0.18813"
           d="m 71.062081,160.28388 v 0 c -5.222837,2.44554 -11.302477,2.44554 -16.525314,0 v 0 c -5.223021,-2.44589 -11.302662,-2.44589 -16.525498,0 v 0 c -5.223011,2.44554 -11.302662,2.44554 -16.525489,0 v 0 c -5.223026,-2.44589 -11.302673,-2.44589 -16.5254969,0 v 10.39904 c 5.2228239,-2.44591 11.3024709,-2.44591 16.5254969,0 v 0 c 5.222827,2.44553 11.302478,2.44553 16.525489,0 v 0 c 5.222836,-2.44591 11.302477,-2.44591 16.525498,0 v 0 c 5.222837,2.44553 11.302477,2.44553 16.525314,0 v 0 c 5.223021,-2.44591 11.302661,-2.44591 16.525498,0 v -10.39904 c -5.223021,-2.44589 -11.302672,-2.44589 -16.525498,0 z"
           id="path1095" />
      </g>
    </g>
    <g
       id="g50067"
       transform="matrix(0.26458333,0,0,0.26458333,-145.63245,49.036708)" />
    <g
       id="g50069"
       transform="matrix(0.26458333,0,0,0.26458333,-145.63245,49.036708)" />
    <g
       id="g50071"
       transform="matrix(0.26458333,0,0,0.26458333,-145.63245,49.036708)" />
    <g
       id="g50073"
       transform="matrix(0.26458333,0,0,0.26458333,-145.63245,49.036708)" />
    <g
       id="g50075"
       transform="matrix(0.26458333,0,0,0.26458333,-145.63245,49.036708)" />
    <g
       id="g50077"
       transform="matrix(0.26458333,0,0,0.26458333,-145.63245,49.036708)" />
    <g
       id="g50079"
       transform="matrix(0.26458333,0,0,0.26458333,-145.63245,49.036708)" />
    <g
       id="g50081"
       transform="matrix(0.26458333,0,0,0.26458333,-145.63245,49.036708)" />
    <g
       id="g50083"
       transform="matrix(0.26458333,0,0,0.26458333,-145.63245,49.036708)" />
    <g
       id="g50085"
       transform="matrix(0.26458333,0,0,0.26458333,-145.63245,49.036708)" />
    <g
       id="g50087"
       transform="matrix(0.26458333,0,0,0.26458333,-145.63245,49.036708)" />
    <g
       id="g50089"
       transform="matrix(0.26458333,0,0,0.26458333,-145.63245,49.036708)" />
    <g
       id="g50091"
       transform="matrix(0.26458333,0,0,0.26458333,-145.63245,49.036708)" />
    <g
       id="g50093"
       transform="matrix(0.26458333,0,0,0.26458333,-145.63245,49.036708)" />
    <g
       id="g50095"
       transform="matrix(0.26458333,0,0,0.26458333,-145.63245,49.036708)" />
    <path
       d="m 101.74455,180.08219 c 0.3642,-0.0564 0.70458,-0.0756 1.05622,-0.083 0.50209,6.2e-4 1.04167,0.0192 1.51734,0.0894 l 1.59245,8.51503 2.28186,-5.72714 c 0.35024,-0.0607 0.7008,-0.0808 1.02986,-0.0814 0.34248,0.0283 0.69437,0.0388 1.00967,0.0814 l 2.26167,5.58475 1.21398,-5.22661 c 0.31487,-0.0582 0.63735,-0.0809 0.92889,-0.0814 0.36094,0.004 0.7165,0.0339 1.05007,0.0814 l -2.28424,7.28111 c -0.3548,0.0547 -0.69014,0.0741 -1.02987,0.0813 -0.34864,-0.004 -0.68788,-0.032 -1.00967,-0.0813 l -2.22127,-5.09657 -2.32225,5.09657 c -0.36155,0.0528 -0.70506,0.074 -1.05006,0.0813 -0.34568,6.2e-4 -0.66459,-0.0313 -0.98948,-0.0813 z"
       id="path13753"
       sodipodi:nodetypes="ccccccccccccccccccc"
       style="font-size:57.7482px;font-family:Aller;-inkscape-font-specification:Aller;letter-spacing:0px;word-spacing:0px;fill:#f1f1f1;fill-opacity:1;stroke-width:1.26671px" />
    <path
       style="font-size:57.7482px;font-family:Aller;-inkscape-font-specification:Aller;letter-spacing:0px;word-spacing:0px;fill:#ffffff;fill-opacity:1;stroke-width:2.53342px"
       d="m 62.421473,169.47171 c -0.738617,0.008 -1.455683,0.065 -2.140504,0.1626 l 6.098468,20.87059 c 0.675923,0.11348 1.321091,0.16146 1.978974,0.16259 0.721859,-0.008 1.433032,-0.0675 2.100221,-0.16259 l 4.644351,-10.19319 4.442539,10.19319 c 0.691732,0.10125 1.35757,0.16146 2.019267,0.16259 0.709033,-0.009 1.399905,-0.0614 2.059929,-0.16259 l 2.620279,-8.85071 -1.817081,-6.1332 -2.620279,10.87477 -4.523485,-11.16937 c -0.806696,-0.116 -1.443145,-0.13412 -2.019273,-0.163 -0.711588,0.005 -1.398826,0.0431 -2.059557,0.16261 l -4.563771,11.45434 -4.038911,-17.04605 c -0.746642,-0.12026 -1.470553,-0.16164 -2.180795,-0.16262 z"
       id="path13757" />
    <path
       id="path13759"
       style="font-size:57.7482px;font-family:Aller;-inkscape-font-specification:Aller;letter-spacing:0px;word-spacing:0px;fill:#f0f0ff;fill-opacity:1;stroke-width:1.81886px"
       d="m 86.026181,175.4042 c -0.548605,0.0109 -1.071625,0.0423 -1.598265,0.11679 l 4.439591,14.98392 c 0.485276,0.0815 0.948583,0.11595 1.420842,0.11677 0.518214,-0.005 1.028869,-0.0485 1.507711,-0.11677 l 3.334761,-7.31824 3.189512,7.31824 c 0.496618,0.0728 0.974522,0.11595 1.449672,0.11677 0.509025,-0.006 1.004995,-0.0442 1.478865,-0.11677 l 1.77938,-6.00976 -1.2837,-4.41296 -1.800455,7.47272 -3.247531,-7.64091 c -0.495595,-0.0634 -1.004552,-0.0885 -1.450044,-0.11673 -0.51084,0.004 -1.004243,0.0311 -1.47851,0.11678 l -3.276729,7.84531 -2.450255,-12.23315 c -0.671178,-0.1082 -2.014845,-0.122 -2.014845,-0.122 z"
       sodipodi:nodetypes="ccccccccccccccccccc" />
  </g>
</svg>
